<?xml version="1.0" encoding="UTF-8" standalone="no"?>
<!-- Created with Inkscape (http://www.inkscape.org/) -->

<svg
   xmlns:dc="http://purl.org/dc/elements/1.1/"
   xmlns:cc="http://creativecommons.org/ns#"
   xmlns:rdf="http://www.w3.org/1999/02/22-rdf-syntax-ns#"
   xmlns:svg="http://www.w3.org/2000/svg"
   xmlns="http://www.w3.org/2000/svg"
   xmlns:sodipodi="http://sodipodi.sourceforge.net/DTD/sodipodi-0.dtd"
   xmlns:inkscape="http://www.inkscape.org/namespaces/inkscape"
   width="512"
   height="512"
   id="svg2"
   version="1.1"
   inkscape:version="0.48.5 r10040"
   sodipodi:docname="MWS.svg">
  <defs
     id="defs4" />
  <sodipodi:namedview
     id="base"
     pagecolor="#009888"
     bordercolor="#666666"
     borderopacity="1.0"
     inkscape:pageopacity="0"
     inkscape:pageshadow="2"
     inkscape:zoom="0.7"
     inkscape:cx="146.89945"
     inkscape:cy="211.99935"
     inkscape:document-units="px"
     inkscape:current-layer="layer1"
     showgrid="false"
     width="512px"
     fit-margin-top="0.1"
     fit-margin-left="0.1"
     fit-margin-right="0.1"
     fit-margin-bottom="0.1"
     inkscape:window-width="1366"
     inkscape:window-height="720"
     inkscape:window-x="0"
     inkscape:window-y="27"
     inkscape:window-maximized="1" />
  <metadata
     id="metadata7">
    <rdf:RDF>
      <cc:Work
         rdf:about="">
        <dc:format>image/svg+xml</dc:format>
        <dc:type
           rdf:resource="http://purl.org/dc/dcmitype/StillImage" />
        <dc:title></dc:title>
      </cc:Work>
    </rdf:RDF>
  </metadata>
  <g
     inkscape:label="Capa 1"
     inkscape:groupmode="layer"
     id="layer1"
     transform="translate(0,-540.3622)">
    <g
       style="font-size:364.04403687000001355px;font-style:normal;font-weight:normal;line-height:125%;letter-spacing:0px;word-spacing:0px;fill:#ffffff;fill-opacity:1;stroke:none;font-family:Sans"
       id="text2985">
      <path
         d="m 134.59274,553.62024 53.50452,0 67.72499,180.59997 68.0805,-180.59997 53.50452,0 0,265.38953 -35.01791,0 0,-233.03796 -68.43601,182.02202 -36.08445,0 -68.43601,-182.02202 0,233.03796 -34.84015,0 0,-265.38953"
         style="fill:#ffffff"
         id="path3017" />
    </g>
    <g
       transform="scale(1.0246201,0.97597149)"
       style="font-size:373.00683593999997356px;font-style:normal;font-weight:normal;line-height:125%;letter-spacing:0px;word-spacing:0px;fill:#ffffff;fill-opacity:1;stroke:none;font-family:Sans"
       id="text2989">
      <path
         d="m 77.733732,792.76357 37.154978,0 57.18952,229.85093 57.0074,-229.85093 41.34402,0 57.18952,229.85093 57.00739,-229.85093 37.33711,0 -68.29959,271.92343 -46.26159,0 -57.37165,-236.04338 -57.91806,236.04338 -46.26159,0 -68.117458,-271.92343"
         style="fill:#ffffff"
         id="path3020" />
    </g>
    <g
       style="font-size:120.45074463000000264px;font-style:normal;font-weight:bold;line-height:125%;letter-spacing:0px;word-spacing:0px;fill:#ffffff;fill-opacity:1;stroke:none;font-family:Sans;-inkscape-font-specification:Sans Bold"
       id="text2993">
      <path
         d="m 284.87759,948.73522 0,18.58517 c -4.8228,-2.15644 -9.5279,-3.78362 -14.11532,-4.88155 -4.58753,-1.09778 -8.92015,-1.64671 -12.99786,-1.64679 -5.41091,8e-5 -9.41025,0.74505 -11.99802,2.23493 -2.58784,1.49002 -3.88174,3.80336 -3.88171,6.94003 -3e-5,2.35262 0.86257,4.19545 2.58781,5.5285 1.76438,1.29397 4.94032,2.41143 9.52784,3.35239 l 9.64547,1.94086 c 9.76304,1.96051 16.70306,4.94041 20.8201,8.9397 4.11689,3.99938 6.17537,9.68472 6.17545,17.05604 -8e-5,9.6847 -2.88195,16.8992 -8.64563,21.6435 -5.72461,4.7051 -14.48787,7.0576 -26.28979,7.0576 -5.56775,0 -11.15506,-0.5293 -16.76194,-1.5879 -5.60694,-1.0587 -11.21386,-2.6271 -16.82076,-4.7052 l 0,-19.1144 c 5.6069,2.9799 11.01777,5.2344 16.23262,6.7635 5.254,1.49 10.31199,2.235 15.17397,2.235 4.94031,0 8.724,-0.8234 11.35107,-2.4702 2.62696,-1.6468 3.94047,-3.9993 3.94053,-7.0577 -6e-5,-2.7446 -0.90187,-4.8619 -2.70544,-6.3519 -1.76447,-1.4899 -5.3129,-2.823 -10.64531,-3.99931 l -8.76326,-1.94086 c -8.78289,-1.882 -15.2132,-4.8815 -19.29094,-8.99851 -4.03856,-4.11692 -6.05783,-9.66502 -6.05782,-16.64432 -1e-5,-8.74359 2.82305,-15.46796 8.46919,-20.17315 5.64611,-4.70502 13.76241,-7.05757 24.34893,-7.05766 4.82269,9e-5 9.78265,0.37258 14.8799,1.11747 5.09714,0.70585 10.37078,1.7841 15.82092,3.23476"
         style="fill:#ffffff"
         id="path3023" />
    </g>
  </g>
</svg>
