<?xml version="1.0" standalone="no"?>
<!DOCTYPE svg PUBLIC "-//W3C//DTD SVG 20010904//EN"
 "http://www.w3.org/TR/2001/REC-SVG-20010904/DTD/svg10.dtd">
<svg version="1.0" xmlns="http://www.w3.org/2000/svg"
 width="700.000000pt" height="700.000000pt" viewBox="0 0 700.000000 700.000000"
 preserveAspectRatio="xMidYMid meet">
<metadata>
Created by potrace 1.14, written by Peter Selinger 2001-2017
</metadata>
<g transform="translate(0.000000,700.000000) scale(0.100000,-0.100000)"
fill="#000000" stroke="none">
<path d="M1840 5003 c0 -1792 1 -1819 21 -1893 11 -41 21 -82 23 -90 6 -21
104 -398 166 -635 29 -110 74 -283 100 -385 118 -457 149 -577 157 -598 5 -13
9 1070 8 2462 0 1367 3 2486 6 2486 5 0 240 -620 619 -1635 72 -192 135 -359
140 -370 5 -11 42 -110 84 -220 41 -110 78 -208 81 -217 7 -17 28 -18 255 -18
l247 0 16 43 c41 112 281 749 303 804 13 34 24 64 24 68 0 4 6 21 14 38 8 18
41 104 73 192 33 88 158 422 279 742 l219 583 5 -2493 c5 -2438 5 -2490 23
-2422 10 39 27 104 38 145 11 41 24 91 28 110 8 32 26 98 81 306 26 97 101
386 105 404 4 16 100 381 165 625 l40 150 0 1818 0 1817 -366 -2 -366 -3 -44
-115 c-24 -63 -53 -137 -63 -165 -11 -27 -79 -207 -151 -400 -72 -192 -135
-359 -140 -370 -4 -11 -18 -47 -30 -80 -11 -33 -25 -69 -30 -80 -5 -11 -59
-155 -121 -320 -61 -165 -159 -424 -217 -575 -57 -151 -109 -292 -115 -312 -6
-21 -14 -38 -17 -38 -3 0 -192 496 -419 1103 -227 606 -415 1109 -418 1117 -4
8 -25 65 -48 125 l-42 110 -366 3 -367 2 0 -1817z"/>
<path d="M1040 4003 c0 -8 113 -444 135 -518 11 -41 76 -285 91 -345 2 -8 21
-82 43 -165 21 -82 56 -213 76 -290 32 -122 75 -287 207 -785 16 -63 32 -126
35 -139 2 -14 6 -28 8 -31 2 -4 20 -69 40 -146 20 -76 45 -173 56 -214 11 -41
22 -82 24 -90 2 -8 20 -78 40 -155 20 -77 39 -148 40 -158 2 -9 6 -21 9 -25 3
-5 8 -22 10 -38 3 -16 26 -103 50 -194 24 -91 65 -247 92 -347 l48 -183 325 3
325 2 52 205 c28 113 86 338 128 500 42 162 99 383 126 490 28 107 76 292 106
410 30 118 80 311 110 429 31 117 57 221 59 230 2 9 15 61 30 116 14 55 51
197 81 315 123 479 115 453 126 415 4 -16 10 -39 12 -50 3 -11 19 -74 36 -140
18 -66 33 -127 35 -135 2 -8 13 -53 25 -100 12 -47 23 -92 25 -100 2 -8 15
-60 30 -115 14 -55 28 -109 30 -120 3 -11 32 -126 66 -255 33 -129 62 -242 64
-250 3 -17 167 -659 214 -840 16 -63 77 -302 135 -530 58 -228 110 -428 114
-445 l8 -30 319 -3 c175 -1 322 1 326 5 6 7 29 88 99 358 10 39 44 167 75 285
58 218 121 457 220 835 30 116 66 253 80 305 43 158 97 364 101 384 2 10 8 33
13 50 6 17 26 94 46 171 20 77 45 172 55 210 20 69 98 366 105 395 4 21 19 79
70 270 106 394 146 552 142 556 -4 5 -350 -114 -412 -141 -16 -7 -55 -20 -85
-30 -30 -10 -60 -22 -66 -29 -8 -8 -94 -317 -119 -426 -2 -8 -13 -53 -25 -100
-12 -47 -24 -92 -26 -100 -2 -8 -13 -51 -25 -95 -11 -44 -22 -88 -24 -97 -2
-9 -13 -50 -24 -90 -11 -40 -34 -125 -50 -188 -60 -232 -158 -610 -191 -736
-11 -39 -38 -143 -60 -230 -23 -87 -88 -339 -146 -560 -57 -220 -104 -409
-105 -420 0 -24 -22 21 -38 81 -6 22 -28 103 -50 180 -21 77 -53 194 -71 260
-17 66 -36 131 -41 145 -4 14 -24 84 -43 155 -56 210 -105 386 -120 440 -14
46 -36 126 -42 150 -1 6 -21 78 -44 160 -24 83 -53 188 -66 235 -12 47 -46
168 -74 270 -92 330 -112 404 -120 435 -12 45 -44 159 -98 355 l-49 175 -246
3 -245 2 -15 -52 c-8 -29 -50 -179 -92 -333 -42 -154 -92 -336 -111 -405 -40
-146 -115 -421 -185 -675 -27 -99 -51 -189 -54 -200 -2 -11 -17 -67 -34 -125
-16 -58 -60 -215 -96 -350 -37 -135 -83 -301 -102 -370 -19 -69 -40 -147 -48
-175 -7 -27 -31 -117 -54 -198 -23 -82 -41 -156 -41 -165 -1 -39 -20 21 -74
228 -30 118 -62 240 -71 270 -13 47 -110 420 -205 786 -30 114 -84 322 -125
479 -13 50 -54 205 -90 345 -37 140 -87 332 -112 425 -24 94 -51 195 -58 225
-39 162 -75 284 -86 291 -7 4 -71 28 -143 54 -72 26 -192 69 -267 96 -141 51
-149 53 -149 42z"/>
<path d="M3352 1534 c-168 -28 -289 -135 -317 -279 -6 -33 -7 -161 -2 -185 19
-82 46 -130 101 -178 59 -52 127 -80 291 -122 170 -43 207 -58 231 -95 21 -33
21 -104 0 -137 -62 -94 -304 -89 -521 11 -48 23 -90 39 -94 37 -10 -6 -5 -256
5 -266 10 -9 161 -56 209 -65 100 -17 132 -20 250 -20 104 1 144 5 200 23 185
57 266 174 266 387 0 129 -35 211 -117 273 -41 32 -162 86 -215 96 -274 52
-329 78 -329 157 0 57 18 86 69 111 87 42 249 31 413 -28 111 -40 103 -48 103
100 l0 130 -50 13 c-28 7 -66 15 -85 18 -19 3 -44 7 -55 10 -99 20 -261 25
-353 9z"/>
</g>
</svg>
